<svg width="84" height="84" viewBox="0 0 84 84" fill="none" xmlns="http://www.w3.org/2000/svg">
<path d="M41.64 50.1675C38.6339 50.17 35.6741 49.4277 33.025 48.0068C30.376 46.5859 28.1203 44.5308 26.4596 42.0251L30.7954 39.1431C31.9826 40.9325 33.5941 42.4003 35.4863 43.4157C37.3785 44.4311 39.4926 44.9625 41.64 44.9625C43.7874 44.9625 45.9015 44.4311 47.7937 43.4157C49.6859 42.4003 51.2974 40.9325 52.4846 39.1431L56.8204 42.0251C55.1597 44.5308 52.904 46.5859 50.2549 48.0068C47.6059 49.4277 44.646 50.17 41.64 50.1675Z" fill="white"/>
<path d="M52.0501 21.5399C51.0206 21.5399 50.0143 21.8452 49.1584 22.4171C48.3024 22.9891 47.6353 23.802 47.2413 24.7531C46.8473 25.7041 46.7443 26.7507 46.9451 27.7604C47.1459 28.77 47.6417 29.6975 48.3696 30.4254C49.0975 31.1533 50.025 31.6491 51.0347 31.8499C52.0443 32.0508 53.0909 31.9477 54.042 31.5537C54.9931 31.1598 55.806 30.4926 56.3779 29.6367C56.9498 28.7807 57.2551 27.7744 57.2551 26.7449C57.2618 26.0595 57.1318 25.3796 56.8726 24.7451C56.6135 24.1106 56.2303 23.5341 55.7456 23.0494C55.261 22.5647 54.6845 22.1816 54.0499 21.9224C53.4154 21.6632 52.7355 21.5332 52.0501 21.5399Z" fill="white"/>
<path d="M31.23 21.5399C30.2006 21.5399 29.1942 21.8452 28.3383 22.4171C27.4823 22.9891 26.8152 23.802 26.4212 24.7531C26.0273 25.7041 25.9242 26.7507 26.125 27.7604C26.3259 28.77 26.8216 29.6975 27.5495 30.4254C28.2775 31.1533 29.2049 31.6491 30.2146 31.8499C31.2243 32.0508 32.2708 31.9477 33.2219 31.5537C34.173 31.1598 34.9859 30.4926 35.5578 29.6367C36.1298 28.7807 36.435 27.7744 36.435 26.7449C36.4418 26.0595 36.3118 25.3796 36.0526 24.7451C35.7934 24.1106 35.4102 23.5341 34.9256 23.0494C34.4409 22.5647 33.8644 22.1816 33.2299 21.9224C32.5953 21.6632 31.9154 21.5332 31.23 21.5399Z" fill="white"/>
<path d="M46.1575 78.7951L41.6401 76.1926L52.0501 57.9751H67.6651C68.349 57.9762 69.0263 57.8424 69.6583 57.5812C70.2904 57.3201 70.8646 56.9367 71.3482 56.4532C71.8317 55.9696 72.2151 55.3953 72.4763 54.7633C72.7374 54.1313 72.8713 53.4539 72.8701 52.7701V16.3351C72.8713 15.6512 72.7374 14.9738 72.4763 14.3418C72.2151 13.7098 71.8317 13.1355 71.3482 12.652C70.8646 12.1684 70.2904 11.785 69.6583 11.5239C69.0263 11.2627 68.349 11.1289 67.6651 11.1301H15.6151C14.9312 11.1289 14.2539 11.2627 13.6218 11.5239C12.9898 11.785 12.4156 12.1684 11.932 12.652C11.4484 13.1355 11.0651 13.7098 10.8039 14.3418C10.5427 14.9738 10.4089 15.6512 10.4101 16.3351V52.7701C10.4089 53.4539 10.5427 54.1313 10.8039 54.7633C11.0651 55.3953 11.4484 55.9696 11.932 56.4532C12.4156 56.9367 12.9898 57.3201 13.6218 57.5812C14.2539 57.8424 14.9312 57.9762 15.6151 57.9751H39.0376V63.1801H15.6151C14.248 63.1803 12.8942 62.9112 11.6311 62.3881C10.368 61.8651 9.22027 61.0983 8.25356 60.1316C7.28686 59.1649 6.52007 58.0172 5.99701 56.7541C5.47394 55.491 5.20484 54.1372 5.20508 52.7701V16.3351C5.20467 14.9679 5.47365 13.614 5.99666 12.3508C6.51966 11.0876 7.28644 9.93989 8.25318 8.97315C9.21992 8.00641 10.3677 7.23963 11.6309 6.71663C12.894 6.19362 14.2479 5.92464 15.6151 5.92505H67.6651C69.0323 5.92464 70.3861 6.19362 71.6493 6.71663C72.9125 7.23963 74.0603 8.00641 75.027 8.97315C75.9937 9.93989 76.7605 11.0876 77.2835 12.3508C77.8065 13.614 78.0755 14.9679 78.0751 16.3351V52.7701C78.0753 54.1372 77.8062 55.491 77.2832 56.7541C76.7601 58.0172 75.9933 59.1649 75.0266 60.1316C74.0599 61.0983 72.9122 61.8651 71.6491 62.3881C70.386 62.9112 69.0322 63.1803 67.6651 63.1801H55.081L46.1575 78.7951Z" fill="white"/>
</svg>
