<svg width="88" height="88" viewBox="0 0 88 88" fill="none" xmlns="http://www.w3.org/2000/svg">
<path d="M44.1404 0.844971C20.1126 0.844971 0.69043 20.2671 0.69043 44.295C0.69043 68.3228 20.1126 87.745 44.1404 87.745C68.1683 87.745 87.5905 68.3228 87.5905 44.295C87.5905 20.2671 68.1683 0.844971 44.1404 0.844971ZM62.8239 62.9785C61.1294 64.673 58.392 64.673 56.6975 62.9785L44.1404 50.4214L31.5834 62.9785C29.8888 64.673 27.1515 64.673 25.4569 62.9785C23.7624 61.2839 23.7624 58.5466 25.4569 56.852L38.014 44.295L25.4569 31.7379C23.7624 30.0434 23.7624 27.306 25.4569 25.6115C27.1515 23.9169 29.8888 23.9169 31.5834 25.6115L44.1404 38.1685L56.6975 25.6115C58.392 23.9169 61.1294 23.9169 62.8239 25.6115C64.5185 27.306 64.5185 30.0434 62.8239 31.7379L50.2669 44.295L62.8239 56.852C64.475 58.5031 64.475 61.2839 62.8239 62.9785Z" fill="#464646"/>
</svg>
