<svg width="63" height="63" viewBox="0 0 63 63" fill="none" xmlns="http://www.w3.org/2000/svg">
<path d="M24.656 62.2534L38.7754 37.8L49.8996 57.0685C44.5442 60.9346 38.1048 63.0104 31.5 63C29.1504 63 26.8607 62.7417 24.656 62.2534ZM18.5554 60.228C14.5088 58.3982 10.8936 55.7355 7.94568 52.4137C4.99774 49.0919 2.78335 45.1857 1.44706 40.95H29.6827L18.5554 60.2248V60.228ZM0.162047 34.65C-0.28867 30.2313 0.203432 25.7673 1.60583 21.553C3.00822 17.3387 5.28897 13.4701 8.29732 10.2029L22.4041 34.65H0.162047ZM13.1035 5.93148C18.4581 2.06606 24.8963 -0.00976114 31.5 3.45098e-05C33.8496 3.45098e-05 36.1393 0.258334 38.344 0.746584L24.2246 25.2L13.1035 5.93148ZM44.4446 2.77203C48.4911 4.60181 52.1064 7.2645 55.0543 10.5863C58.0023 13.9081 60.2166 17.8143 61.5529 22.05H33.3173L44.4446 2.77203ZM62.838 28.35C63.2887 32.7686 62.7966 37.2326 61.3942 41.447C59.9918 45.6613 57.711 49.5299 54.7027 52.7971L40.5959 28.35H62.8442H62.838Z" fill="white"/>
</svg>
