<svg width="75" height="68" viewBox="0 0 75 68" fill="none" xmlns="http://www.w3.org/2000/svg">
    <path fill-rule="evenodd" clip-rule="evenodd"
        d="M27.1875 0C12.1723 0 0 12.1723 0 27.1875C0 60.9375 45 67.5 45 67.5V54.375H47.8125C62.8277 54.375 75 42.2027 75 27.1875C75 12.1723 62.8277 0 47.8125 0H27.1875ZM49.4184 12.6276C52.4147 14.8894 54.375 18.339 54.375 22.7739C54.375 28.1751 50.9509 31.5587 47.5599 33.4275C45.5503 34.5349 43.3573 35.2421 41.3749 35.6632C41.3543 37.7167 39.6833 39.375 37.6251 39.375C35.5539 39.375 33.8751 37.6961 33.8751 35.625V32.4122C33.8751 30.4309 35.4163 28.7914 37.3937 28.6693C39.1828 28.5587 41.8513 28.0099 43.9401 26.8588C45.9658 25.7424 46.875 24.4408 46.875 22.7739C46.875 20.7834 46.0931 19.5144 44.8999 18.6135C43.5793 17.6168 41.5718 16.965 39.2216 16.8836C36.8878 16.8026 34.563 17.2999 32.7975 18.2049C31.0238 19.1139 30.1507 20.235 29.8856 21.2837C29.3777 23.2916 27.3384 24.5076 25.3305 23.9998C23.3228 23.4921 22.1066 21.4526 22.6146 19.4449C23.568 15.6746 26.3513 13.0811 29.3764 11.5305C32.4098 9.97575 36.0263 9.26831 39.4815 9.38812C42.9204 9.50737 46.5497 10.4619 49.4184 12.6276ZM33.75 45C33.75 42.9291 35.4289 41.25 37.5 41.25C39.5711 41.25 41.25 42.9291 41.25 45C41.25 47.0711 39.5711 48.75 37.5 48.75C35.4289 48.75 33.75 47.0711 33.75 45Z"
        fill="white" />
</svg>
