<svg width="70" height="69" viewBox="0 0 70 69" fill="none" xmlns="http://www.w3.org/2000/svg">
<path d="M52.717 67.8451H17.2939C11.5377 67.8451 6.28752 63.4172 5.33869 57.7242L1.13219 32.5487C0.468015 28.6269 2.3657 23.5981 5.49683 21.0995L27.4148 3.54606C31.653 0.130281 38.3261 0.16194 42.5958 3.57772L64.5141 21.0995C67.6136 23.5981 69.5112 28.6269 68.8787 32.5487L64.6722 57.7242C63.7234 63.3223 58.3783 67.8451 52.717 67.8451ZM34.9739 5.79168C33.2976 5.79168 31.6211 6.29763 30.3876 7.27808L8.46982 24.8315C6.66705 26.2864 5.43361 29.5124 5.81314 31.7896L10.0196 56.9652C10.5889 60.2861 13.9097 63.1009 17.2939 63.1009H52.717C56.1011 63.1009 59.4217 60.2861 59.991 56.9335L64.1975 31.758C64.577 29.4808 63.3122 26.2231 61.5411 24.7999L39.6231 7.27808C38.358 6.29763 36.6818 5.79168 34.9739 5.79168Z" fill="white" stroke="white" stroke-width="2"/>
<path d="M35.0056 47.8878C29.3443 47.8878 24.7266 43.2701 24.7266 37.6088C24.7266 31.9475 29.3443 27.3298 35.0056 27.3298C40.6669 27.3298 45.2845 31.9475 45.2845 37.6088C45.2845 43.2701 40.6669 47.8878 35.0056 47.8878ZM35.0056 32.074C31.9693 32.074 29.4708 34.5725 29.4708 37.6088C29.4708 40.645 31.9693 43.1436 35.0056 43.1436C38.0418 43.1436 40.5404 40.645 40.5404 37.6088C40.5404 34.5725 38.0418 32.074 35.0056 32.074Z" fill="white" stroke="white" stroke-width="2"/>
</svg>
