<svg width="66" height="67" viewBox="0 0 66 67" fill="none" xmlns="http://www.w3.org/2000/svg">
<path d="M58.5042 41.9444L58.9167 42.2971V41.7544V11.0267C58.9167 9.98575 58.5042 8.98734 57.7697 8.25111C57.0352 7.51485 56.039 7.10112 55 7.10112H11C9.96104 7.10112 8.96476 7.51485 8.23029 8.25111C7.49584 8.98734 7.08333 9.98575 7.08333 11.0267V54.0308V54.5655L7.49366 54.2226L34.1857 31.913C34.1859 31.9128 34.1861 31.9126 34.1863 31.9125C35.9594 30.4502 38.1841 29.6508 40.48 29.6508C42.7754 29.6508 44.9996 30.4499 46.7726 31.9116C46.7731 31.912 46.7737 31.9125 46.7743 31.913L58.5042 41.9444ZM12.893 58.6172L12.3647 59.059H13.0533H55C56.039 59.059 57.0352 58.6452 57.7697 57.909C58.5042 57.1728 58.9167 56.1743 58.9167 55.1334V51.4579V51.3426L58.829 51.2677L42.2923 37.1535L42.286 37.1481L42.2793 37.1432C41.7431 36.7441 41.093 36.5285 40.425 36.5285C39.757 36.5285 39.1069 36.7441 38.5707 37.1432L38.5651 37.1474L38.5596 37.1519L12.893 58.6172ZM11 0.25H55C57.8509 0.25 60.5851 1.38525 62.6012 3.4062C64.6173 5.42718 65.75 8.16833 65.75 11.0267V55.1334C65.75 57.9918 64.6173 60.7329 62.6012 62.7539C60.5851 64.7748 57.8509 65.9101 55 65.9101H11C8.14912 65.9101 5.41488 64.7748 3.39882 62.7539C1.38273 60.7329 0.25 57.9918 0.25 55.1334V11.0267C0.25 8.16833 1.38273 5.42718 3.39882 3.4062C5.41488 1.38525 8.14912 0.25 11 0.25Z" fill="white" stroke="#363141" stroke-width="0.5"/>
<path d="M18.3333 25.7288C21.3708 25.7288 23.8333 23.2604 23.8333 20.2155C23.8333 17.1706 21.3708 14.7021 18.3333 14.7021C15.2957 14.7021 12.8333 17.1706 12.8333 20.2155C12.8333 23.2604 15.2957 25.7288 18.3333 25.7288Z" fill="white"/>
</svg>
