<svg width="71" height="64" viewBox="0 0 71 64" fill="none" xmlns="http://www.w3.org/2000/svg">
<path d="M0 12.7677V51.1692C0 54.7048 1.4732 57.8477 3.83032 60.303C6.18744 62.6601 9.23205 63.9369 12.7677 63.9369H32.0176V55.9816H12.7677C10.116 55.9816 8.05349 53.8209 8.05349 51.1692V12.7677C8.05349 10.116 10.116 8.05349 12.7677 8.05349H32.0176V0H12.7677C9.23205 0 6.18744 1.37499 3.83032 3.73211C1.4732 6.18744 0 9.23205 0 12.7677ZM21.1159 24.3569V39.6782C21.1159 41.446 22.6873 42.9192 24.4551 42.9192H42.2317V54.9995C42.2317 56.0798 42.821 56.9637 43.8032 57.4548C44.196 57.553 44.5889 57.553 44.7853 57.553C45.4728 57.553 46.0621 57.3566 46.5531 56.8655L69.6333 33.7854C70.7136 32.9015 70.6154 31.1336 69.6333 30.1515L46.5531 7.16957C45.1781 5.69637 42.2317 6.58029 42.2317 8.93741V21.1159H24.4551C22.6873 21.1159 21.1159 22.5891 21.1159 24.3569Z" fill="white"/>
</svg>
