<svg width="69" height="56" viewBox="0 0 69 56" fill="none" xmlns="http://www.w3.org/2000/svg">
<path fill-rule="evenodd" clip-rule="evenodd" d="M10.35 55.2C7.60501 55.2 4.97245 54.1096 3.03145 52.1686C1.09044 50.2276 0 47.595 0 44.85V10.35C0 7.60501 1.09044 4.97245 3.03145 3.03145C4.97245 1.09044 7.60501 0 10.35 0H58.65C61.395 0 64.0276 1.09044 65.9686 3.03145C67.9096 4.97245 69 7.60501 69 10.35V44.85C69 47.595 67.9096 50.2276 65.9686 52.1686C64.0276 54.1096 61.395 55.2 58.65 55.2H10.35ZM19.4062 14.559C19.0548 14.2589 18.6467 14.0325 18.206 13.8932C17.7654 13.7538 17.3013 13.7045 16.8412 13.748C16.3811 13.7915 15.9345 13.9269 15.5278 14.1464C15.1211 14.3658 14.7626 14.6647 14.4736 15.0253C14.1846 15.386 13.9711 15.801 13.8456 16.2458C13.7201 16.6905 13.6852 17.156 13.7431 17.6144C13.8009 18.0729 13.9503 18.5151 14.1823 18.9148C14.4143 19.3145 14.7243 19.6634 15.0938 19.941L28.0312 30.2945C29.8669 31.7642 32.1484 32.565 34.5 32.565C36.8516 32.565 39.1331 31.7642 40.9688 30.2945L53.9062 19.9445C54.2601 19.6613 54.5547 19.3112 54.7732 18.9142C54.9918 18.5172 55.13 18.081 55.18 17.6306C55.2299 17.1801 55.1907 16.7243 55.0645 16.289C54.9383 15.8537 54.7276 15.4476 54.4445 15.0938C54.1613 14.7399 53.8112 14.4453 53.4142 14.2268C53.0172 14.0082 52.581 13.87 52.1306 13.82C51.6801 13.7701 51.2243 13.8093 50.789 13.9355C50.3537 14.0617 49.9476 14.2724 49.5938 14.5555L36.6562 24.9056C36.0443 25.3955 35.2839 25.6624 34.5 25.6624C33.7161 25.6624 32.9557 25.3955 32.3438 24.9056L19.4062 14.5555V14.559Z" fill="white"/>
</svg>
