<svg width="71" height="77" viewBox="0 0 71 77" fill="none" xmlns="http://www.w3.org/2000/svg">
<path d="M56.8146 36.8364V16.1021C56.8148 15.8402 56.7634 15.5809 56.6632 15.339C56.563 15.0971 56.4161 14.8774 56.2308 14.6923L45.789 4.25053C45.4161 3.8772 44.9103 3.66721 44.3826 3.66675H5.73334C5.20551 3.66675 4.69931 3.87643 4.32607 4.24966C3.95284 4.62289 3.74316 5.1291 3.74316 5.65693V68.0159C3.74316 68.5437 3.95284 69.0499 4.32607 69.4232C4.69931 69.7964 5.20551 70.0061 5.73334 70.0061H33.5959M17.011 30.2025H43.5468M17.011 16.9346H30.2789M17.011 43.4703H26.9619" stroke="white" stroke-width="7" stroke-linecap="round" stroke-linejoin="round"/>
<path d="M43.5469 3.66675V14.9444C43.5469 15.4723 43.7566 15.9785 44.1298 16.3517C44.503 16.7249 45.0092 16.9346 45.5371 16.9346H56.8147M56.7882 47.2019L65.2664 49.3546C66.1487 49.5802 66.769 50.3829 66.7424 51.2917C66.1719 70.3908 55.1563 73.323 55.1563 73.323C55.1563 73.323 44.1406 70.3908 43.5701 51.2917C43.5598 50.8493 43.7004 50.4165 43.9686 50.0645C44.2369 49.7125 44.6168 49.4621 45.0461 49.3546L53.5243 47.2019C54.5957 46.9299 55.7168 46.9299 56.7882 47.2019Z" stroke="white" stroke-width="7" stroke-linecap="round" stroke-linejoin="round"/>
</svg>
