<svg width="68" height="65" viewBox="0 0 68 65" fill="none" xmlns="http://www.w3.org/2000/svg">
    <path
        d="M52.9123 64.8492C52.3611 64.8489 51.8183 64.715 51.3302 64.459L34 55.3482L16.6699 64.459C16.1083 64.7542 15.4753 64.8864 14.8425 64.8406C14.2097 64.7949 13.6024 64.573 13.0891 64.2001C12.5758 63.8272 12.177 63.3182 11.9379 62.7306C11.6988 62.1429 11.6288 61.5001 11.7359 60.8748L15.0462 41.5773L1.0264 27.9129C0.572221 27.4699 0.250996 26.9087 0.0990225 26.2928C-0.0529508 25.6768 -0.0296129 25.0307 0.166398 24.4273C0.36241 23.8239 0.723279 23.2874 1.20823 22.8783C1.69317 22.4693 2.28286 22.204 2.91066 22.1125L22.2861 19.2969L30.9503 1.74068C31.2634 1.21046 31.7094 0.771052 32.2442 0.465799C32.779 0.160547 33.3842 0 34 0C34.6157 0 35.2209 0.160547 35.7557 0.465799C36.2905 0.771052 36.7365 1.21046 37.0496 1.74068L45.7139 19.2966L65.0893 22.1122C65.7171 22.2037 66.3068 22.469 66.7918 22.878C67.2767 23.2871 67.6376 23.8236 67.8336 24.427C68.0296 25.0304 68.0529 25.6765 67.901 26.2925C67.749 26.9084 67.4278 27.4696 66.9736 27.9126L52.9538 41.577L56.2641 60.8745C56.3477 61.3625 56.3238 61.863 56.1939 62.3409C56.064 62.8187 55.8313 63.2624 55.5121 63.641C55.1928 64.0195 54.7948 64.3238 54.3457 64.5324C53.8966 64.7411 53.4075 64.8493 52.9123 64.8492Z"
        fill="white" />
</svg>
