<svg width="56" height="55" viewBox="0 0 56 55" fill="none" xmlns="http://www.w3.org/2000/svg">
    <path
        d="M28.2197 0L34.575 3.6825H41.94L45.6225 10.0972L52.0372 13.7797V21.1447L55.7197 27.5L52.0372 33.8553V41.2203L45.6225 44.9028L41.94 51.3175H34.575L28.2197 55L21.8644 51.3175H14.4994L10.8169 44.9028L4.40223 41.2203V33.8553L0.719727 27.5L4.40223 21.1447V13.7797L10.8169 10.0972L14.4994 3.6825H21.8644L28.2197 0Z"
        fill="#005eb8" />
    <path
        d="M45.3566 18.7691L39.9717 13.3842L22.6939 30.662L16.4709 24.439L11.0859 29.824L22.7926 41.5441L45.3566 18.7691Z"
        fill="white" />
    <path
        d="M11.082 29.8307L22.7887 41.5508L45.3554 18.7758L39.9704 13.3909L22.6926 30.6687L16.4697 24.4457L11.082 29.8307Z"
        fill="#1E2E40" />
</svg>