<svg width="75" height="86" viewBox="0 0 75 86" fill="none" xmlns="http://www.w3.org/2000/svg">
<path d="M37.5035 10.1079C26.6243 10.1079 17.7734 18.959 17.7734 29.8348C17.7734 40.714 26.6245 49.5649 37.5035 49.5649C48.3794 49.5649 57.2304 40.7139 57.2304 29.8348C57.2304 18.959 48.3794 10.1079 37.5035 10.1079ZM46.256 43.3099L37.5035 38.7056L28.7477 43.3099L30.4181 33.5597L23.3361 26.6549L33.1257 25.234L37.5035 16.3632L41.8782 25.234L51.6678 26.6549L44.5857 33.5597L46.256 43.3099Z" fill="white"/>
<path d="M52.7262 26.3123L42.2071 24.7839L37.5028 15.252L32.7986 24.7839L22.2793 26.3123L29.8912 33.732L28.0943 44.2086L37.5029 39.2622L46.9114 44.2086L45.1145 33.732L52.7262 26.3123ZM45.6036 42.4087L37.5028 38.1497L29.4017 42.4087L30.9487 33.3881L24.395 26.9999L33.4524 25.684L37.5028 17.4766L41.5533 25.684L50.6103 26.9999L44.0566 33.3881L45.6036 42.4087Z" fill="#4A555F"/>
<path d="M65.9186 32.5979C66.8208 31.951 67.3383 30.9452 67.3383 29.8381C67.3383 28.7251 66.8204 27.7176 65.9173 27.0743C65.2886 26.622 64.9129 25.8888 64.9129 25.1124C64.9129 24.5939 65.0751 24.0987 65.3814 23.6815C65.8158 23.0927 66.0452 22.3982 66.0452 21.673C66.0452 20.185 65.0927 18.8807 63.6741 18.4275C62.6681 18.1073 61.9922 17.1828 61.9922 16.1268C61.9922 15.866 62.0336 15.6102 62.115 15.366C62.4624 14.318 62.2909 13.2033 61.6443 12.3076C60.9978 11.4124 59.9944 10.8988 58.8685 10.8988C58.8633 10.8988 58.8582 10.8988 58.8535 10.8988C58.2122 10.8988 57.6087 10.6497 57.1526 10.1967C56.6927 9.73942 56.4395 9.13098 56.4395 8.46988C56.4447 7.5569 56.0949 6.69941 55.4543 6.05526C54.5621 5.15756 53.2113 4.8148 51.9713 5.22369C51.7278 5.30493 51.4721 5.34614 51.2114 5.34614C50.1557 5.34614 49.2311 4.67025 48.9106 3.66356C48.4573 2.24582 47.1534 1.29313 45.6654 1.29313C44.9401 1.29313 44.2456 1.52258 43.6571 1.95656C43.1331 2.34185 42.4908 2.49753 41.8479 2.39635C41.2053 2.2945 40.6422 1.94775 40.2627 1.4189C39.6136 0.517218 38.6079 0 37.5035 0C36.393 0 35.3858 0.51755 34.7406 1.41957C34.2887 2.04927 33.5548 2.42543 32.7776 2.42543C32.2591 2.42543 31.7643 2.26327 31.3469 1.95705C30.7582 1.52274 30.0637 1.29313 29.3385 1.29313C27.8505 1.29313 26.5464 2.24582 26.093 3.66406C25.7728 4.67025 24.8495 5.34614 23.7953 5.34614C23.5325 5.34614 23.2774 5.3051 23.0347 5.22335C21.9851 4.87544 20.8681 5.04757 19.9721 5.69488C19.0772 6.34136 18.5642 7.3444 18.5642 8.47005C18.568 9.11686 18.3189 9.72596 17.8622 10.1854C17.4049 10.6454 16.7962 10.8988 16.1351 10.8988C16.1281 10.8988 16.121 10.8988 16.1143 10.8988C15.2093 10.8988 14.36 11.248 13.7206 11.8836C13.0801 12.5202 12.7128 13.3982 12.7128 14.2922C12.7128 14.6504 12.7717 15.0115 12.889 15.3665C12.9701 15.6109 13.0115 15.8666 13.0115 16.1268C13.0115 17.1827 12.3356 18.1073 11.3289 18.4276C9.91102 18.881 8.95832 20.1851 8.95832 21.673C8.95832 22.3977 9.18777 23.0922 9.62175 23.6807C9.92846 24.0984 10.0906 24.5934 10.0906 25.1122C10.0906 25.8893 9.71463 26.6232 9.08559 27.0748C8.18308 27.7204 7.66553 28.7276 7.66553 29.838C7.66553 30.9425 8.18275 31.9482 9.08493 32.5975C9.71479 33.0495 10.0906 33.7833 10.0906 34.5606C10.0906 35.0793 9.92846 35.5742 9.62242 35.9914C9.18777 36.5806 8.95832 37.2751 8.95832 38C8.95832 39.4878 9.91101 40.7921 11.3296 41.2452C12.3356 41.5655 13.0115 42.4901 13.0115 43.5462C13.0115 43.8062 12.9701 44.0621 12.8887 44.3066C12.5413 45.3547 12.7128 46.4692 13.3592 47.3649C14.0057 48.2603 15.0094 48.7738 16.1352 48.7738C16.7962 48.7669 17.3918 49.0194 17.8512 49.476C18.3111 49.9332 18.5643 50.5415 18.5643 51.2028C18.5588 52.1156 18.9084 52.9731 19.5487 53.6172C20.443 54.5164 21.7964 54.8582 23.0374 54.4486C23.2771 54.3679 23.5323 54.3268 23.7953 54.3268C24.8494 54.3268 25.7726 55.0027 26.0933 56.0093C26.5466 57.4273 27.8508 58.3798 29.3385 58.3798C30.0634 58.3798 30.7579 58.1504 31.3461 57.7166C31.7641 57.4097 32.2589 57.2476 32.7778 57.2476C33.555 57.2476 34.2889 57.6235 34.7398 58.2519C35.3833 59.1548 36.3907 59.6726 37.5037 59.6726C38.6111 59.6726 39.6167 59.1553 40.2634 58.2532C40.7153 57.6235 41.4502 57.2476 42.2296 57.2476C42.7461 57.2476 43.2398 57.4097 43.657 57.7161C44.246 58.1504 44.9406 58.3798 45.6655 58.3798C47.1532 58.3798 48.4576 57.4272 48.911 56.0087C49.2312 55.0027 50.1558 54.3268 51.2115 54.3268C51.4724 54.3268 51.7281 54.368 51.9723 54.4495C53.0194 54.797 54.1351 54.6256 55.0308 53.9789C55.9261 53.3324 56.4395 52.3289 56.4395 51.2028C56.4357 50.5559 56.6848 49.9468 57.1413 49.4873C57.5988 49.0274 58.207 48.774 58.8685 48.774H58.8892C59.7942 48.774 60.6436 48.4248 61.2829 47.7893C61.9236 47.1524 62.2908 46.2745 62.2908 45.3806C62.2908 45.0226 62.2318 44.6617 62.1145 44.3056C62.0331 44.0626 61.992 43.807 61.992 43.546C61.992 42.49 62.6679 41.5654 63.6746 41.2449C65.0925 40.7918 66.045 39.4878 66.045 37.9998C66.045 37.2748 65.8156 36.5803 65.3819 35.9921C65.0749 35.5739 64.9127 35.0788 64.9127 34.5604C64.9129 33.7837 65.2889 33.0498 65.9186 32.5979ZM65.3446 31.7979C64.4578 32.4345 63.9283 33.4673 63.9283 34.5607C63.9283 35.2901 64.1566 35.9866 64.5893 36.5758C64.8975 36.9941 65.0606 37.4868 65.0606 38C65.0606 39.0579 64.3831 39.9851 63.3755 40.3071C61.9593 40.7579 61.0078 42.0595 61.0078 43.5462C61.0078 43.9132 61.0661 44.2737 61.1802 44.6157C61.2638 44.8702 61.3065 45.1276 61.3065 45.3806C61.3065 46.0141 61.045 46.6377 60.5889 47.0909C60.132 47.5453 59.5252 47.7996 58.8547 47.7894C57.9428 47.7894 57.0865 48.146 56.4434 48.7931C55.8005 49.4401 55.4496 50.2977 55.4549 51.2255C55.4549 52.0089 55.0903 52.7215 54.4541 53.1807C53.8182 53.64 53.0269 53.7619 52.2827 53.5154C51.9389 53.4007 51.5782 53.3424 51.2114 53.3424C49.725 53.3424 48.4234 54.2939 47.9728 55.7097C47.6505 56.7179 46.7232 57.3954 45.6654 57.3954C45.1523 57.3954 44.6597 57.2323 44.2401 56.9232C43.6523 56.4914 42.9568 56.2633 42.2294 56.2633C41.1337 56.2633 40.0997 56.7928 39.4632 57.6797C39.0037 58.3209 38.2894 58.6884 37.5035 58.6884C36.713 58.6884 35.9979 58.321 35.5406 57.6795C34.9041 56.7928 33.8715 56.2633 32.7778 56.2633C32.0477 56.2633 31.3514 56.4914 30.7626 56.9239C30.3442 57.2324 29.8517 57.3954 29.3387 57.3954C28.2806 57.3954 27.3535 56.7179 27.0314 55.7102C26.5805 54.2939 25.2799 53.3424 23.7955 53.3424C23.425 53.3424 23.0641 53.4007 22.726 53.5147C21.8431 53.8058 20.8836 53.5636 20.2474 52.9234C19.7933 52.4665 19.5453 51.8574 19.5491 51.1895C19.5491 50.2776 19.1927 49.4213 18.5452 48.778C17.9037 48.14 17.054 47.7896 16.1346 47.7896C15.3562 47.7902 14.621 47.4307 14.1579 46.7889C13.6987 46.1527 13.5769 45.3612 13.8233 44.6175C13.9379 44.2727 13.9964 43.9124 13.9964 43.5463C13.9964 42.0598 13.0449 40.7582 11.6293 40.3075C10.6208 39.9853 9.94325 39.058 9.94325 38.0002C9.94325 37.4871 10.1064 36.9946 10.4158 36.5751C10.8474 35.9869 11.0755 35.2905 11.0755 34.5609C11.0755 33.4675 10.546 32.4345 9.65997 31.7984C9.01847 31.3368 8.65045 30.6224 8.65045 29.8385C8.65045 29.0498 9.01814 28.3345 9.65963 27.8754C10.546 27.2389 11.0755 26.2062 11.0755 25.1127C11.0755 24.3827 10.8474 23.6862 10.4151 23.0977C10.1064 22.679 9.94325 22.1865 9.94325 21.6735C9.94325 20.6156 10.6208 19.6882 11.6288 19.366C13.0451 18.9153 13.9966 17.6138 13.9966 16.1273C13.9966 15.7613 13.9383 15.4009 13.8241 15.0575C13.7402 14.8031 13.6979 14.5459 13.6979 14.2925C13.6979 13.6588 13.9594 13.0355 14.4154 12.5822C14.8689 12.1314 15.4718 11.8839 16.1339 11.8839C17.056 11.8973 17.9142 11.531 18.5613 10.88C19.204 10.2332 19.5547 9.37539 19.5494 8.44778C19.5494 7.6649 19.9138 6.95245 20.5495 6.49355C21.1865 6.03366 21.9805 5.91137 22.7233 6.1576C23.0649 6.27274 23.4258 6.33106 23.796 6.33106C25.2805 6.33106 26.581 5.37937 27.0315 3.96362C27.354 2.95544 28.2811 2.27805 29.3392 2.27805C29.8526 2.27805 30.3449 2.44121 30.7641 2.75041C31.3524 3.18206 32.0489 3.41035 32.7783 3.41035C33.8719 3.41035 34.9046 2.88084 35.5415 1.99327C36 1.35244 36.7153 0.984924 37.504 0.984924C38.2879 0.984924 39.0023 1.35278 39.4637 1.99411C39.9981 2.73778 40.7902 3.22609 41.6948 3.36914C42.5988 3.51153 43.5033 3.29255 44.2416 2.74975C44.6598 2.44104 45.1525 2.27805 45.6659 2.27805C46.7237 2.27805 47.651 2.95544 47.973 3.96312C48.4239 5.37937 49.7253 6.33106 51.2119 6.33106C51.5786 6.33106 51.9391 6.27291 52.2817 6.1586C53.1697 5.86485 54.1223 6.11125 54.7568 6.74975C55.2109 7.20666 55.4593 7.81576 55.4554 8.48384C55.4554 9.39566 55.8118 10.2521 56.4593 10.8955C57.101 11.5335 57.9505 11.8841 58.8699 11.8839C59.6655 11.8787 60.3832 12.2428 60.8464 12.8844C61.3062 13.5206 61.428 14.3121 61.1814 15.0556C61.0666 15.3997 61.0083 15.7603 61.0083 16.1273C61.0083 17.614 61.9598 18.9154 63.3754 19.3659C64.3836 19.688 65.0611 20.6156 65.0611 21.6735C65.0611 22.1867 64.898 22.6793 64.5891 23.0984C64.1571 23.6865 63.9288 24.383 63.9288 25.1127C63.9288 26.2062 64.4583 27.2389 65.3451 27.8754L65.3467 27.8764C65.9871 28.3328 66.3542 29.0478 66.3542 29.8385C66.3539 30.624 65.9862 31.3383 65.3446 31.7979Z" fill="white"/>
<path d="M64.6751 28.8084C63.4886 27.9565 62.78 26.5748 62.78 25.1126C62.78 24.1368 63.0854 23.2052 63.6649 22.4158C63.8693 22.1384 63.9123 21.8587 63.9123 21.6731C63.9123 21.2103 63.638 20.6557 63.0278 20.4604C61.1327 19.8575 59.8595 18.1161 59.8595 16.1271C59.8595 15.636 59.9377 15.153 60.0906 14.6953C60.2197 14.3053 60.1559 13.8903 59.9151 13.5567C59.6746 13.2235 59.3016 13.0323 58.8912 13.0323H58.8536C57.6396 13.0325 56.4981 12.5593 55.6388 11.6998C54.7795 10.8405 54.3065 9.6982 54.3065 8.45775C54.3092 8.02094 54.1098 7.72819 53.9418 7.55939C53.7027 7.31864 53.3762 7.18073 53.0463 7.18073C52.9148 7.18073 52.7788 7.20383 52.6463 7.24736C52.185 7.40121 51.7021 7.4793 51.2115 7.4793C49.2229 7.4793 47.4813 6.20611 46.8789 4.31319C46.683 3.7006 46.1282 3.42646 45.6655 3.42646C45.4799 3.42646 45.2001 3.46949 44.9213 3.67518C44.1344 4.25371 43.2035 4.55959 42.2285 4.55959C40.7654 4.55975 39.3829 3.85113 38.5314 2.66534C38.2882 2.32723 37.9135 2.13333 37.5036 2.13333C37.0903 2.13333 36.7153 2.32573 36.4739 2.66334C35.622 3.85014 34.2405 4.55876 32.7777 4.55876C31.8021 4.55876 30.8705 4.25354 30.0805 3.67369C29.8035 3.46949 29.5241 3.42646 29.3386 3.42646C28.8757 3.42646 28.321 3.7006 28.1259 4.31136C27.5228 6.20628 25.7826 7.4793 23.7956 7.4793C23.3002 7.4793 22.8158 7.40088 22.3646 7.24852C22.231 7.20433 22.0951 7.1819 21.9603 7.1819C21.3531 7.1819 20.6976 7.66589 20.6976 8.45708C20.7049 9.67611 20.2354 10.824 19.3756 11.6893C18.5148 12.5553 17.369 13.0321 16.149 13.0321H16.1144C15.3312 13.0321 14.8462 13.6863 14.8462 14.2924C14.8462 14.4233 14.8693 14.5599 14.9132 14.6929C15.067 15.1548 15.145 15.6372 15.145 16.127C15.145 18.1157 13.8716 19.8571 11.9789 20.4596C11.3661 20.6553 11.0918 21.2103 11.0918 21.673C11.0918 21.8586 11.1347 22.138 11.3413 22.4185C11.9189 23.2049 12.2239 24.1364 12.2239 25.1126C12.2239 26.575 11.5156 27.9567 10.327 28.8099C9.99139 29.0501 9.79883 29.4248 9.79883 29.8383C9.79883 30.2482 9.99272 30.6227 10.3292 30.8648C11.5156 31.7164 12.2239 33.0981 12.2239 34.5607C12.2239 35.5368 11.9189 36.4684 11.3393 37.2576C11.1345 37.5353 11.0916 37.8146 11.0916 38C11.0916 38.4629 11.3659 39.0175 11.9769 39.2129C13.8719 39.8161 15.1448 41.5575 15.1448 43.5463C15.1448 44.0356 15.0669 44.5181 14.9137 44.9784C14.7843 45.3683 14.8482 45.783 15.089 46.1165C15.3294 46.4498 15.7027 46.641 16.1129 46.641H16.1505C18.6577 46.641 20.6976 48.6815 20.6976 51.2157C20.695 51.6522 20.8943 51.9449 21.062 52.1137C21.3011 52.3545 21.6277 52.4924 21.9579 52.4924C22.0931 52.4924 22.2268 52.47 22.3561 52.4273C22.816 52.2724 23.3003 52.1937 23.7954 52.1937C25.7821 52.1937 27.5225 53.4668 28.1253 55.3599C28.3211 55.9727 28.8759 56.2468 29.3386 56.2468C29.5242 56.2468 29.8034 56.2038 30.0838 55.9971C30.8702 55.4197 31.8016 55.1145 32.7777 55.1145C34.2405 55.1145 35.6223 55.823 36.4772 57.0144C36.7149 57.3482 37.0893 57.5398 37.5036 57.5398C37.9149 57.5398 38.2885 57.3469 38.5303 57.0099C39.3818 55.8232 40.7646 55.1147 42.2297 55.1147C43.2033 55.1147 44.1336 55.4199 44.923 55.9993C45.2006 56.2041 45.4801 56.247 45.6656 56.247C46.1284 56.247 46.6831 55.9729 46.8784 55.3619C47.4818 53.4668 49.223 52.1938 51.2117 52.1938C51.702 52.1938 52.1846 52.2719 52.6438 52.4251C52.7766 52.4691 52.9118 52.4914 53.0458 52.4914C53.6522 52.4914 54.3065 52.0074 54.3065 51.2162C54.2992 49.9972 54.7687 48.8493 55.6285 47.9838C56.4893 47.118 57.6351 46.6412 58.8548 46.6412H58.8897C59.3303 46.6412 59.6236 46.436 59.7919 46.2642C60.0245 46.0264 60.1579 45.7044 60.1579 45.3811C60.1579 45.2502 60.1348 45.1138 60.0916 44.982C59.9374 44.5205 59.8593 44.0375 59.8593 43.5467C59.8593 41.5577 61.1323 39.8161 63.0258 39.2137C63.6382 39.018 63.9122 38.4632 63.9122 38.0003C63.9122 37.8146 63.8691 37.5351 63.6628 37.2551C63.0852 36.4684 62.7799 35.5368 62.7799 34.5611C62.7799 33.0986 63.4885 31.7169 64.6758 30.8644C65.0122 30.6234 65.2053 30.2495 65.2053 29.8386C65.2055 29.4238 65.0139 29.0496 64.6751 28.8084ZM37.5038 52.8468C24.8151 52.8468 14.4918 42.5237 14.4918 29.8348C14.4918 17.1479 24.8151 6.82617 37.5038 6.82617C50.191 6.82617 60.5126 17.1478 60.5126 29.8348C60.5126 42.5237 50.191 52.8468 37.5038 52.8468Z" fill="white"/>
<path d="M62.5099 49.9163L61.6401 50.3772L72.8183 71.4841L67.0018 68.9684C64.3435 67.8188 61.3503 67.9366 58.791 69.2926C56.2313 70.6485 54.4522 73.0581 53.91 75.9036L52.7242 82.1282L41.3493 60.6446L40.4795 61.1051L53.1664 85.0676L54.877 76.0879C55.3628 73.5377 56.9574 71.3779 59.2517 70.1625C61.5457 68.947 64.2287 68.8415 66.6107 69.8721L75.0002 73.5004L62.5099 49.9163Z" fill="white"/>
<path d="M61.3513 52.2854C60.8766 52.4284 60.3828 52.5143 59.8777 52.5402C59.7976 54.068 59.1698 55.4875 58.0906 56.5663C56.9344 57.7319 55.3351 58.4003 53.7035 58.4003C53.1667 58.4003 52.6307 58.3297 52.1027 58.1889C51.1864 60.576 48.908 62.1549 46.3227 62.1549C45.1266 62.1549 43.9747 61.8124 42.9715 61.163C42.9536 61.1791 42.9569 61.1761 42.939 61.1924L52.2082 78.6994L52.8596 75.2799C54.095 68.7973 61.0192 65.1293 67.0761 67.7492L70.2728 69.1319L61.3513 52.2854Z" fill="white"/>
<path d="M33.6511 60.6446L22.2761 82.1282L21.0903 75.9036C20.548 73.0581 18.769 70.6485 16.2094 69.2926C13.6502 67.9368 10.6572 67.8185 7.99852 68.9684L2.18202 71.4841L13.3603 50.3772L12.4905 49.9163L0 73.5006L8.38946 69.8723C10.7722 68.8415 13.4548 68.9473 15.7485 70.1627C18.0428 71.3779 19.6373 73.5377 20.1232 76.088L21.8338 85.0676L34.521 61.1051L33.6511 60.6446Z" fill="white"/>
<path d="M32.0288 61.163C31.0256 61.8124 29.8737 62.1549 28.6777 62.1549C26.0923 62.1549 23.8139 60.576 22.8976 58.1889C22.3694 58.3298 21.8336 58.4003 21.2968 58.4003C19.6652 58.4003 18.0659 57.7319 16.9097 56.5663C15.8305 55.4874 15.2028 54.068 15.1226 52.5402C14.6175 52.5143 14.1237 52.4284 13.649 52.2854L4.72754 69.1318L7.92422 67.7491C13.9811 65.1293 20.9053 68.7971 22.1407 75.2797L22.7923 78.6992L32.0613 61.1922C32.0434 61.1761 32.0467 61.1791 32.0288 61.163Z" fill="white"/>
<path d="M17.6612 23.3197L16.7254 23.013C16.6202 23.3338 16.5222 23.6581 16.4342 23.977L17.3827 24.2398C17.4669 23.9354 17.5606 23.6259 17.6612 23.3197ZM17.1471 25.1719L16.1869 24.9537C16.1123 25.2825 16.0447 25.6143 15.9861 25.9398L16.9552 26.1141C17.011 25.8032 17.0757 25.4861 17.1471 25.1719ZM18.3464 21.5193L17.4432 21.127C17.3103 21.4334 17.182 21.7477 17.0627 22.0614L17.9825 22.4117C18.0968 22.1121 18.2192 21.8119 18.3464 21.5193ZM16.8072 27.0641L15.831 26.9347C15.7875 27.2645 15.7506 27.6013 15.722 27.9356L16.7027 28.0198C16.7302 27.7003 16.7651 27.379 16.8072 27.0641ZM24.0479 13.8717L23.4127 13.1192C23.1575 13.3345 22.9041 13.5588 22.6589 13.7856L23.3275 14.5084C23.5617 14.2915 23.804 14.0772 24.0479 13.8717ZM22.6365 15.1771L21.9351 14.4858C21.7019 14.7225 21.4694 14.9691 21.2448 15.2185L21.9768 15.8771C22.1913 15.6388 22.4133 15.4032 22.6365 15.1771ZM21.35 16.6068L20.5885 15.9824C20.3775 16.2396 20.169 16.5066 19.968 16.7758L20.757 17.3644C20.9491 17.1074 21.1484 16.8525 21.35 16.6068ZM19.1954 19.7909L18.3326 19.3168C18.1717 19.6096 18.0152 19.9105 17.8675 20.2112L18.7508 20.6455C18.8921 20.3583 19.0418 20.0707 19.1954 19.7909ZM17.7283 36.552L16.7957 36.8677C16.9019 37.181 17.0182 37.4996 17.1416 37.8141L18.0582 37.4545C17.9403 37.1543 17.8291 36.8507 17.7283 36.552ZM21.4711 43.2117L20.7155 43.8424C20.929 44.0983 21.1516 44.3533 21.3779 44.6002L22.1041 43.9353C21.8881 43.6994 21.675 43.4559 21.4711 43.2117ZM18.4294 38.3393L17.5302 38.7402C17.6653 39.0436 17.8104 39.3489 17.9609 39.6483L18.8403 39.2061C18.6968 38.9203 18.5585 38.6287 18.4294 38.3393ZM16.6247 29.835C16.6247 29.5486 16.6305 29.2634 16.642 28.9798L15.6581 28.9398C15.646 29.2365 15.6401 29.5351 15.6401 29.835L15.6405 29.948L16.6249 29.9393L16.6247 29.835ZM20.3084 41.6822L19.4983 42.2411C19.688 42.5167 19.8867 42.7909 20.0882 43.056L20.8721 42.4601C20.6796 42.2069 20.4902 41.9453 20.3084 41.6822ZM17.1954 34.7049L16.2378 34.9331C16.315 35.2574 16.4013 35.585 16.4941 35.9072L17.4402 35.6342C17.3516 35.327 17.2692 35.0143 17.1954 34.7049ZM16.6516 30.9032L15.6684 30.9518C15.6852 31.285 15.7098 31.6229 15.7418 31.9562L16.7218 31.8617C16.691 31.5435 16.6674 31.221 16.6516 30.9032ZM16.8362 32.8167L15.8613 32.9557C15.9086 33.288 15.9645 33.6223 16.0266 33.9491L16.9937 33.7649C16.9344 33.453 16.8814 33.1339 16.8362 32.8167ZM19.2909 40.0534L18.4326 40.5354C18.5944 40.8238 18.7672 41.1151 18.9453 41.4007L19.7805 40.879C19.6101 40.6063 19.4453 40.3287 19.2909 40.0534ZM53.4004 16.3034L54.1504 15.6656C53.935 15.4124 53.7094 15.1595 53.4798 14.9141L52.7607 15.5865C52.9799 15.8208 53.195 16.062 53.4004 16.3034ZM56.4906 21.1465L57.3861 20.7366C57.2477 20.4343 57.0998 20.1303 56.9466 19.8329L56.071 20.2835C56.2174 20.5674 56.3585 20.8579 56.4906 21.1465ZM57.2093 22.9274L58.1381 22.6012C58.0273 22.2854 57.9076 21.9684 57.7833 21.6592L56.8699 22.0274C56.9892 22.3226 57.1033 22.6255 57.2093 22.9274ZM54.5785 17.8215L55.3835 17.2549C55.1928 16.984 54.9916 16.7116 54.7849 16.4458L54.0073 17.0496C54.2045 17.3035 54.3968 17.5631 54.5785 17.8215ZM55.6111 19.4406L56.465 18.95C56.2993 18.6616 56.124 18.3721 55.9438 18.09L55.1137 18.6195C55.2855 18.8888 55.4528 19.1651 55.6111 19.4406ZM25.5715 12.701L25.0074 11.894C24.7311 12.0871 24.4584 12.287 24.1966 12.488L24.7959 13.2691C25.0501 13.0742 25.3089 12.8846 25.5715 12.701ZM58.3413 28.5645L59.3239 28.5061C59.3043 28.1733 59.276 27.8357 59.2406 27.5024L58.2619 27.6068C58.2956 27.9248 58.3225 28.2469 58.3413 28.5645ZM58.1381 26.6529L59.111 26.5046C59.0607 26.1729 59.0017 25.8391 58.9361 25.5127L57.9708 25.7065C58.0332 26.0179 58.0897 26.3364 58.1381 26.6529ZM57.7596 24.768L58.7153 24.5311C58.6355 24.2092 58.546 23.8822 58.4489 23.5589L57.506 23.8415C57.5984 24.1499 57.6837 24.4616 57.7596 24.768ZM28.9055 10.8056L28.4991 9.90872C28.1941 10.0468 27.8895 10.1932 27.5938 10.344L28.0404 11.2211C28.3229 11.0774 28.6139 10.9375 28.9055 10.8056ZM30.689 10.0961L30.3678 9.16538C30.0518 9.27454 29.7345 9.39233 29.4239 9.51578L29.788 10.4304C30.0842 10.3128 30.3874 10.2001 30.689 10.0961ZM27.1957 11.6764L26.7086 10.8207C26.4191 10.9854 26.1292 11.1593 25.8468 11.3376L26.3716 12.1702C26.6419 11.9999 26.9191 11.8337 27.1957 11.6764ZM52.776 14.1947C52.5376 13.9617 52.2895 13.7305 52.0391 13.5075L51.3847 14.243C51.6234 14.4557 51.86 14.6763 52.0875 14.8988L52.776 14.1947ZM51.2727 12.8552C51.0133 12.6443 50.7455 12.4368 50.4763 12.2381L49.8917 13.0303C50.1484 13.2199 50.4041 13.4179 50.6523 13.6191L51.2727 12.8552ZM49.6522 11.6593C49.3779 11.475 49.0917 11.2926 48.8021 11.1173L48.2925 11.9598C48.5691 12.1271 48.8421 12.3009 49.1036 12.4765L49.6522 11.6593ZM32.533 9.55383L32.2998 8.59748C31.9741 8.6769 31.647 8.76496 31.3273 8.859L31.6048 9.80355C31.91 9.71383 32.2225 9.62976 32.533 9.55383ZM20.1997 18.1492L19.3844 17.597C19.197 17.8738 19.0133 18.159 18.839 18.4446L19.6787 18.9581C19.8457 18.6855 20.0206 18.4133 20.1997 18.1492ZM47.9854 47.8951L48.4809 48.7459C48.7697 48.5778 49.0581 48.401 49.3382 48.2204L48.8042 47.3932C48.5371 47.5654 48.2616 47.7344 47.9854 47.8951ZM46.6009 11.0405C46.8872 11.1793 47.1753 11.3275 47.4573 11.4805L47.9271 10.6155C47.6321 10.455 47.3303 10.3 47.0304 10.1546L46.6009 11.0405ZM49.5994 46.8543L50.1711 47.6558C50.4446 47.4609 50.7153 47.2584 50.9764 47.0537L50.3695 46.2788C50.1199 46.4742 49.8609 46.6679 49.5994 46.8543ZM51.1122 45.6687L51.7543 46.4152C52.0062 46.1984 52.2578 45.9716 52.502 45.7411L51.8258 45.0252C51.5928 45.2454 51.3528 45.4619 51.1122 45.6687ZM44.831 10.2812C45.1309 10.3935 45.4316 10.5143 45.7243 10.6401L46.1128 9.73543C45.8058 9.60351 45.4907 9.47707 45.1764 9.35911L44.831 10.2812ZM44.5075 49.5099L44.8376 50.4373C45.1513 50.3258 45.4676 50.2047 45.7782 50.0776L45.4052 49.1665C45.1088 49.2877 44.8069 49.4034 44.5075 49.5099ZM46.2839 48.7826L46.6986 49.6755C47.0025 49.5345 47.3056 49.3849 47.6001 49.2314L47.1451 48.3585C46.8636 48.5052 46.574 48.6479 46.2839 48.7826ZM42.9994 9.69024C43.3061 9.77364 43.6159 9.86586 43.9203 9.96405L44.2229 9.02731C43.9037 8.9243 43.579 8.8276 43.2575 8.74037L42.9994 9.69024ZM52.51 44.3495L53.2183 45.0334C53.4502 44.7931 53.68 44.5444 53.9008 44.294L53.1631 43.6424C52.9516 43.882 52.7321 44.1197 52.51 44.3495ZM57.9013 34.3005L58.8635 34.5092C58.9349 34.1798 58.9994 33.8475 59.0545 33.5211L58.0841 33.3565C58.0311 33.6679 57.9696 33.9857 57.9013 34.3005ZM22.075 45.3266C22.3115 45.5625 22.557 45.7961 22.8044 46.0208L23.4665 45.292C23.2303 45.0776 22.9957 44.8546 22.7697 44.6293L22.075 45.3266ZM57.4055 36.1577L58.3439 36.4548C58.4453 36.1358 58.5398 35.8107 58.6261 35.4885L57.6749 35.2343C57.5924 35.5422 57.5021 35.8529 57.4055 36.1577ZM53.7833 42.907L54.5509 43.5236C54.7596 43.2639 54.9656 42.9947 55.1634 42.7242L54.3685 42.1432C54.1794 42.4017 53.9827 42.6588 53.7833 42.907ZM59.3614 29.5113L58.3768 29.5265C58.3785 29.629 58.3792 29.732 58.3792 29.835C58.3792 30.0536 58.3757 30.2713 58.3692 30.4883L59.3529 30.518C59.3599 30.2912 59.3636 30.0634 59.3636 29.8348C59.3637 29.7268 59.3631 29.619 59.3614 29.5113ZM56.7376 37.9648L57.6446 38.3484C57.7754 38.039 57.9003 37.7234 58.016 37.41L57.0923 37.0691C56.9822 37.368 56.8626 37.6695 56.7376 37.9648ZM54.9181 41.3538L55.7392 41.8973C55.9228 41.6197 56.1033 41.3329 56.2761 41.0446L55.4314 40.5389C55.2662 40.8145 55.0939 41.0887 54.9181 41.3538ZM55.9062 39.702L56.7735 40.1676C56.9312 39.8736 57.0847 39.5711 57.2299 39.2684L56.3422 38.8427C56.2033 39.1321 56.0569 39.4212 55.9062 39.702ZM58.2228 32.4045L59.1996 32.5253C59.2403 32.1971 59.274 31.8597 59.2996 31.5229L58.3177 31.4483C58.2933 31.7699 58.2612 32.0916 58.2228 32.4045ZM32.5133 51.126C32.8359 51.2016 33.1677 51.271 33.4989 51.3324L33.6783 50.3642C33.362 50.3057 33.0456 50.2396 32.7376 50.1675L32.5133 51.126ZM30.5758 50.578C30.8918 50.6837 31.216 50.7836 31.5383 50.8746L31.8061 49.9272C31.4984 49.8402 31.1896 49.7448 30.888 49.6441L30.5758 50.578ZM28.6934 49.851C29.0004 49.9862 29.3141 50.1158 29.626 50.2364L29.981 49.318C29.6829 49.203 29.3837 49.0792 29.0908 48.9501L28.6934 49.851ZM33.2837 8.38166L33.4721 9.34797C33.7861 9.2865 34.1051 9.232 34.4198 9.18531L34.2756 8.21136C33.9458 8.2602 33.6122 8.31752 33.2837 8.38166ZM25.1737 47.8933C25.4493 48.0817 25.7333 48.2666 26.0182 48.4427L26.5361 47.6057C26.264 47.4372 25.9926 47.2606 25.7295 47.0805L25.1737 47.8933ZM23.5649 46.6805C23.8213 46.8931 24.0871 47.1032 24.3549 47.3053L24.9479 46.5192C24.6917 46.3263 24.438 46.1254 24.1931 45.9226L23.5649 46.6805ZM34.4933 51.4925C34.8237 51.538 35.1598 51.5764 35.4931 51.6068L35.5829 50.6266C35.2643 50.5973 34.9432 50.5608 34.6278 50.5172L34.4933 51.4925ZM26.8877 48.9529C27.1816 49.1166 27.4818 49.2748 27.7799 49.423L28.2184 48.5412C27.9337 48.3997 27.6471 48.2488 27.3665 48.0928L26.8877 48.9529ZM41.1229 9.27188C41.4389 9.3272 41.7559 9.39017 42.0658 9.45913L42.2799 8.49829C41.9556 8.42585 41.6235 8.35989 41.2929 8.30207L41.1229 9.27188ZM40.7863 50.4574L40.9401 51.4297C41.2716 51.3774 41.6045 51.3167 41.93 51.2498L41.732 50.2855C41.4209 50.3494 41.1026 50.4072 40.7863 50.4574ZM42.6682 50.0698L42.9111 51.0238C43.2348 50.9416 43.5611 50.8504 43.8809 50.753L43.5943 49.8111C43.2889 49.9043 42.9774 49.9912 42.6682 50.0698ZM35.2751 8.08708L35.3738 9.06652C35.6912 9.03445 36.0135 9.00936 36.3327 8.99159L36.2782 8.00866C35.9444 8.0271 35.6069 8.05335 35.2751 8.08708ZM39.2163 9.02864C39.534 9.05422 39.8553 9.08795 40.172 9.12833L40.297 8.15188C39.9648 8.10934 39.628 8.07428 39.2958 8.04737L39.2163 9.02864ZM38.8749 50.6696L38.939 51.6519C39.2752 51.6301 39.6123 51.6002 39.9417 51.5638L39.8327 50.5853C39.5184 50.6202 39.1961 50.6487 38.8749 50.6696ZM36.5414 50.6919L36.4972 51.6754C36.8318 51.6906 37.1706 51.6982 37.5035 51.6982C37.6467 51.6982 37.7901 51.6969 37.933 51.6941L37.9137 50.7098C37.4597 50.7184 36.9994 50.7125 36.5414 50.6919ZM37.285 7.97592L37.294 8.96052L37.5035 8.95935C37.7554 8.95935 38.0061 8.96367 38.256 8.97265L38.2912 7.98872C38.0297 7.97941 37.7669 7.97476 37.5025 7.97476L37.285 7.97592Z" fill="white"/>
</svg>
