<svg width="63" height="70" viewBox="0 0 63 70" fill="none" xmlns="http://www.w3.org/2000/svg">
<path d="M31.5 69.6281C29.3375 69.6281 27.1429 69.144 25.4323 68.1435L7.68136 57.9124C0.451845 53.039 0 52.2966 0 44.6476V25.9928C0 18.3437 0.41957 17.6014 7.51999 12.7925L25.4 2.4646C28.7889 0.495849 34.1142 0.495849 37.503 2.4646L55.3186 12.7279C62.5482 17.6014 63 18.3437 63 25.9928V44.6153C63 52.2644 62.5804 53.0067 55.48 57.8156L37.5999 68.1435C35.857 69.144 33.6624 69.6281 31.5 69.6281ZM31.5 5.85344C30.1444 5.85344 28.8212 6.11164 27.8852 6.6603L10.1342 16.9236C4.87347 20.4738 4.87347 20.4739 4.87347 25.9928V44.6153C4.87347 50.1342 4.87347 50.1342 10.2633 53.7813L27.8852 63.9478C29.7894 65.0451 33.2428 65.0451 35.147 63.9478L52.898 53.6844C58.1265 50.1342 58.1265 50.1342 58.1265 44.6153V25.9928C58.1265 20.4739 58.1265 20.4739 52.7367 16.8268L35.1147 6.6603C34.1787 6.11164 32.8555 5.85344 31.5 5.85344Z" fill="white"/>
<path d="M31.4992 47.4238C24.8184 47.4238 19.3962 42.0016 19.3962 35.3208C19.3962 28.6399 24.8184 23.2178 31.4992 23.2178C38.1801 23.2178 43.6022 28.6399 43.6022 35.3208C43.6022 42.0016 38.1801 47.4238 31.4992 47.4238ZM31.4992 28.059C27.4972 28.059 24.2374 31.3187 24.2374 35.3208C24.2374 39.3228 27.4972 42.5826 31.4992 42.5826C35.5013 42.5826 38.761 39.3228 38.761 35.3208C38.761 31.3187 35.5013 28.059 31.4992 28.059Z" fill="white"/>
</svg>
