<svg width="73" height="73" viewBox="0 0 73 73" fill="none" xmlns="http://www.w3.org/2000/svg">
<mask id="mask0_76_1136" style="mask-type:luminance" maskUnits="userSpaceOnUse" x="0" y="0" width="73" height="73">
<path d="M0.15332 0.153564H72.1533V72.1536H0.15332V0.153564Z" fill="white"/>
</mask>
<g mask="url(#mask0_76_1136)">
<path d="M5.2959 41.2963C5.2959 20.7249 13.4677 4.14746 36.1543 4.14746C58.7996 4.14746 67.0102 20.7249 67.0102 41.2963" stroke="white" stroke-width="8" stroke-linecap="round"/>
<path d="M5.2959 42.0295C5.2959 30.7164 13.1326 27.8881 17.051 27.8881C24.104 27.8881 25.8673 33.5446 25.8673 36.373V47.6861C25.8673 54.474 19.9898 56.1711 17.051 56.1711C13.1326 56.1711 5.2959 53.3425 5.2959 42.0295Z" stroke="white" stroke-width="8"/>
<path d="M67.0104 42.0295C67.0104 30.7164 59.1737 27.8881 55.2554 27.8881C48.2022 27.8881 46.439 33.5446 46.439 36.373V47.6861C46.439 54.474 52.3167 56.1711 55.2554 56.1711C59.1737 56.1711 67.0104 53.3425 67.0104 42.0295Z" stroke="white" stroke-width="8"/>
<path d="M67.0007 41.4484C67.0007 41.4484 68.3718 59.3623 60.0722 64.5386C51.7732 69.7148 41.5176 67.3471 41.5176 67.3471" stroke="white" stroke-width="8" stroke-linecap="round"/>
</g>
</svg>
