<svg width="63" height="70" viewBox="0 0 63 70" fill="none" xmlns="http://www.w3.org/2000/svg">
<path d="M50.5 22C55.7467 22 60 17.7467 60 12.5C60 7.25329 55.7467 3 50.5 3C45.2533 3 41 7.25329 41 12.5C41 17.7467 45.2533 22 50.5 22Z" stroke="white" stroke-width="6" stroke-linecap="round" stroke-linejoin="round"/>
<path d="M12.5 44.1666C17.7467 44.1666 22 39.9133 22 34.6666C22 29.4199 17.7467 25.1666 12.5 25.1666C7.25329 25.1666 3 29.4199 3 34.6666C3 39.9133 7.25329 44.1666 12.5 44.1666Z" stroke="white" stroke-width="6" stroke-linecap="round" stroke-linejoin="round"/>
<path d="M50.5 66.3333C55.7467 66.3333 60 62.08 60 56.8333C60 51.5866 55.7467 47.3333 50.5 47.3333C45.2533 47.3333 41 51.5866 41 56.8333C41 62.08 45.2533 66.3333 50.5 66.3333Z" stroke="white" stroke-width="6" stroke-linecap="round" stroke-linejoin="round"/>
<path d="M20.7017 39.4483L42.33 52.0516" stroke="white" stroke-width="6" stroke-linecap="round" stroke-linejoin="round"/>
<path d="M42.2983 17.2817L20.7017 29.885" stroke="white" stroke-width="6" stroke-linecap="round" stroke-linejoin="round"/>
</svg>
