<svg width="82" height="82" viewBox="0 0 82 82" fill="none" xmlns="http://www.w3.org/2000/svg">
<path d="M41.9167 1.5C34.4834 1.5 27.217 3.70422 21.0365 7.83393C14.8559 11.9636 10.0388 17.8334 7.1942 24.7008C4.3496 31.5683 3.60533 39.125 5.05549 46.4155C6.50565 53.7059 10.0851 60.4026 15.3412 65.6588C20.5974 70.9149 27.2941 74.4944 34.5845 75.9445C41.875 77.3947 49.4317 76.6504 56.2992 73.8058C63.1667 70.9612 69.0364 66.1441 73.1661 59.9635C77.2958 53.783 79.5 46.5166 79.5 39.0833C79.5226 34.1415 78.5659 29.2441 76.6852 24.6741C74.8045 20.1041 72.037 15.9519 68.5425 12.4575C65.0481 8.96303 60.8959 6.19552 56.3259 4.31479C51.7559 2.43406 46.8585 1.47738 41.9167 1.5ZM41.9167 15.1667C44.6197 15.1667 47.262 15.9682 49.5095 17.4699C51.7569 18.9716 53.5086 21.1061 54.543 23.6033C55.5774 26.1006 55.8481 28.8485 55.3207 31.4996C54.7934 34.1506 53.4918 36.5858 51.5805 38.4971C49.6691 40.4084 47.234 41.7101 44.5829 42.2374C41.9318 42.7647 39.1839 42.4941 36.6867 41.4597C34.1894 40.4253 32.055 38.6736 30.5533 36.4261C29.0515 34.1786 28.25 31.5363 28.25 28.8333C28.25 25.2087 29.6899 21.7325 32.2529 19.1695C34.8159 16.6065 38.292 15.1667 41.9167 15.1667ZM41.9167 69.8333C34.192 69.784 26.7623 66.8608 21.075 61.6333C24.4168 55.5833 34.6298 51.1949 41.9167 51.0833C49.2035 51.1949 58.5 56 62.7583 61.6333C57.071 66.8608 49.6413 69.784 41.9167 69.8333Z" fill="white"/>
</svg>
